<svg xmlns="http://www.w3.org/2000/svg" xmlns:xlink="http://www.w3.org/1999/xlink" width="500" zoomAndPan="magnify" viewBox="0 0 375 374.999991" height="500" preserveAspectRatio="xMidYMid meet" version="1.0"><defs><g/><clipPath id="3a88ecf8b5"><path d="M 154 121.71875 L 263 121.71875 L 263 191.46875 L 154 191.46875 Z M 154 121.71875 " clip-rule="nonzero"/></clipPath><clipPath id="39ce7b57b7"><path d="M 112 121.71875 L 221 121.71875 L 221 191.46875 L 112 191.46875 Z M 112 121.71875 " clip-rule="nonzero"/></clipPath></defs><rect x="-37.5" width="450" fill="#ffffff" y="-37.499999" height="449.999989" fill-opacity="1"/><rect x="-37.5" width="450" fill="#ffffff" y="-37.499999" height="449.999989" fill-opacity="1"/><rect x="-37.5" width="450" fill="#050a30" y="-37.499999" height="449.999989" fill-opacity="1"/><g clip-path="url(#3a88ecf8b5)"><path fill="#233dff" d="M 228.496094 121.914062 C 218.222656 121.722656 208.945312 125.988281 202.46875 132.902344 C 199.570312 135.992188 200.476562 141.007812 204.234375 142.972656 C 206.800781 144.320312 209.988281 143.851562 211.96875 141.742188 C 215.9375 137.515625 221.578125 134.875 227.839844 134.875 C 240.019531 134.875 249.859375 144.867188 249.589844 157.085938 C 249.40625 165.242188 244.554688 172.644531 237.195312 176.199219 C 226.125 181.546875 215.046875 174.519531 205.371094 169.386719 C 191.5 162.03125 177.628906 154.675781 163.757812 147.320312 C 160.644531 145.671875 156.785156 146.863281 155.148438 149.976562 C 153.53125 153.050781 154.6875 156.847656 157.746094 158.5 C 161.964844 160.78125 167.113281 163.78125 167.992188 164.242188 C 173.644531 167.199219 179.292969 170.15625 184.945312 173.113281 C 191.910156 176.761719 198.816406 180.515625 205.855469 184.019531 C 212.96875 187.5625 219.710938 191.277344 227.839844 191.277344 C 247.3125 191.277344 263.046875 175.285156 262.578125 155.742188 C 262.132812 137.277344 246.996094 122.253906 228.496094 121.914062 " fill-opacity="1" fill-rule="nonzero"/></g><g clip-path="url(#39ce7b57b7)"><path fill="#f4f6fc" d="M 146.242188 191.273438 C 156.515625 191.460938 165.792969 187.195312 172.269531 180.285156 C 175.167969 177.191406 174.261719 172.175781 170.503906 170.210938 L 170.300781 170.101562 C 167.777344 168.78125 164.71875 169.371094 162.769531 171.445312 C 158.800781 175.667969 153.160156 178.308594 146.898438 178.308594 C 134.71875 178.308594 124.878906 168.316406 125.148438 156.097656 C 125.332031 147.941406 130.183594 140.539062 137.542969 136.984375 C 148.613281 131.636719 159.691406 138.664062 169.367188 143.796875 C 183.238281 151.152344 197.109375 158.507812 210.980469 165.863281 C 214.09375 167.515625 217.953125 166.324219 219.589844 163.210938 C 221.207031 160.136719 220.050781 156.335938 216.992188 154.683594 C 212.773438 152.402344 207.625 149.402344 206.746094 148.941406 C 201.09375 145.984375 195.445312 143.027344 189.792969 140.070312 C 182.828125 136.425781 175.921875 132.667969 168.882812 129.164062 C 161.769531 125.625 155.027344 121.90625 146.898438 121.90625 C 127.425781 121.90625 111.691406 137.898438 112.160156 157.445312 C 112.605469 175.910156 127.742188 190.929688 146.242188 191.273438 " fill-opacity="1" fill-rule="nonzero"/></g><g fill="#ffffff" fill-opacity="1"><g transform="translate(103.318849, 231.288326)"><g><path d="M 2.546875 0 L 2.546875 -23.53125 L 6.40625 -23.53125 L 6.40625 0 Z M 2.546875 0 "/></g></g></g><g fill="#ffffff" fill-opacity="1"><g transform="translate(111.576408, 231.288326)"><g><path d="M 6.40625 -9.546875 L 6.40625 0 L 2.546875 0 L 2.546875 -23.53125 L 10.671875 -23.53125 C 13.328125 -23.53125 15.378906 -22.867188 16.828125 -21.546875 C 18.273438 -20.234375 19 -18.554688 19 -16.515625 C 19 -14.941406 18.515625 -13.519531 17.546875 -12.25 C 16.585938 -10.988281 15.117188 -10.164062 13.140625 -9.78125 L 19.375 0 L 14.65625 0 L 8.765625 -9.546875 Z M 6.40625 -20.515625 L 6.40625 -12.5625 L 10.671875 -12.5625 C 12.128906 -12.5625 13.21875 -12.910156 13.9375 -13.609375 C 14.664062 -14.304688 15.03125 -15.28125 15.03125 -16.53125 C 15.03125 -17.789062 14.664062 -18.769531 13.9375 -19.46875 C 13.21875 -20.164062 12.128906 -20.515625 10.671875 -20.515625 Z M 6.40625 -20.515625 "/></g></g></g><g fill="#ffffff" fill-opacity="1"><g transform="translate(132.28847, 231.288326)"><g><path d="M 2.546875 0 L 2.546875 -23.53125 L 6.40625 -23.53125 L 6.40625 0 Z M 2.546875 0 "/></g></g></g><g fill="#ffffff" fill-opacity="1"><g transform="translate(140.546028, 231.288326)"><g><path d="M 9.84375 -20.6875 C 8.695312 -20.6875 7.757812 -20.390625 7.03125 -19.796875 C 6.3125 -19.210938 5.953125 -18.363281 5.953125 -17.25 C 5.953125 -16.132812 6.378906 -15.28125 7.234375 -14.6875 C 8.097656 -14.101562 9.140625 -13.675781 10.359375 -13.40625 C 11.578125 -13.132812 12.796875 -12.820312 14.015625 -12.46875 C 15.234375 -12.125 16.269531 -11.476562 17.125 -10.53125 C 17.988281 -9.582031 18.421875 -8.238281 18.421875 -6.5 C 18.421875 -4.757812 17.6875 -3.203125 16.21875 -1.828125 C 14.75 -0.453125 12.785156 0.234375 10.328125 0.234375 C 7.867188 0.234375 5.867188 -0.335938 4.328125 -1.484375 C 2.796875 -2.640625 2.03125 -4.234375 2.03125 -6.265625 L 6.15625 -6.265625 C 6.25 -5.222656 6.632812 -4.394531 7.3125 -3.78125 C 7.988281 -3.175781 8.976562 -2.875 10.28125 -2.875 C 11.59375 -2.875 12.628906 -3.210938 13.390625 -3.890625 C 14.148438 -4.566406 14.53125 -5.367188 14.53125 -6.296875 C 14.53125 -7.222656 14.296875 -7.945312 13.828125 -8.46875 C 13.367188 -8.988281 12.769531 -9.375 12.03125 -9.625 C 11.300781 -9.882812 10.492188 -10.113281 9.609375 -10.3125 C 8.734375 -10.519531 7.847656 -10.757812 6.953125 -11.03125 C 6.066406 -11.300781 5.253906 -11.648438 4.515625 -12.078125 C 3.785156 -12.515625 3.1875 -13.144531 2.71875 -13.96875 C 2.257812 -14.789062 2.03125 -15.800781 2.03125 -17 C 2.03125 -19.050781 2.769531 -20.703125 4.25 -21.953125 C 5.726562 -23.210938 7.644531 -23.84375 10 -23.84375 C 12.363281 -23.84375 14.25 -23.300781 15.65625 -22.21875 C 17.070312 -21.132812 17.859375 -19.5625 18.015625 -17.5 L 13.75 -17.5 C 13.65625 -18.40625 13.269531 -19.160156 12.59375 -19.765625 C 11.914062 -20.378906 11 -20.6875 9.84375 -20.6875 Z M 9.84375 -20.6875 "/></g></g></g><g fill="#ffffff" fill-opacity="1"><g transform="translate(160.310463, 231.288326)"><g><path d="M 17.46875 -23.53125 L 21.328125 -23.53125 L 21.328125 0 L 17.46875 0 L 17.46875 -10.390625 L 6.40625 -10.390625 L 6.40625 0 L 2.546875 0 L 2.546875 -23.53125 L 6.40625 -23.53125 L 6.40625 -13.375 L 17.46875 -13.375 Z M 17.46875 -23.53125 "/></g></g></g><g fill="#ffffff" fill-opacity="1"><g transform="translate(183.493107, 231.288326)"><g><path d="M 13.265625 0.203125 C 9.910156 0.203125 7.066406 -0.921875 4.734375 -3.171875 C 2.410156 -5.429688 1.25 -8.304688 1.25 -11.796875 C 1.25 -15.285156 2.410156 -18.164062 4.734375 -20.4375 C 7.066406 -22.707031 9.910156 -23.84375 13.265625 -23.84375 C 15.773438 -23.84375 18.003906 -23.222656 19.953125 -21.984375 C 21.910156 -20.753906 23.328125 -19.015625 24.203125 -16.765625 L 19.578125 -16.765625 C 18.304688 -19.128906 16.203125 -20.3125 13.265625 -20.3125 C 10.898438 -20.3125 8.96875 -19.53125 7.46875 -17.96875 C 5.96875 -16.414062 5.21875 -14.359375 5.21875 -11.796875 C 5.21875 -9.234375 5.96875 -7.171875 7.46875 -5.609375 C 8.96875 -4.054688 10.898438 -3.28125 13.265625 -3.28125 C 16.203125 -3.28125 18.304688 -4.46875 19.578125 -6.84375 L 24.203125 -6.84375 C 23.328125 -4.582031 21.910156 -2.84375 19.953125 -1.625 C 18.003906 -0.40625 15.773438 0.203125 13.265625 0.203125 Z M 13.265625 0.203125 "/></g></g></g><g fill="#ffffff" fill-opacity="1"><g transform="translate(208.977129, 231.288326)"><g><path d="M 18.421875 0 L 16.734375 -4.8125 L 6.875 -4.8125 L 5.1875 0 L 1.15625 0 L 9.578125 -23.5625 L 14.046875 -23.5625 L 22.484375 0 Z M 7.921875 -7.828125 L 15.671875 -7.828125 L 11.8125 -18.890625 Z M 7.921875 -7.828125 "/></g></g></g><g fill="#ffffff" fill-opacity="1"><g transform="translate(231.889035, 231.288326)"><g><path d="M 6.40625 -9.546875 L 6.40625 0 L 2.546875 0 L 2.546875 -23.53125 L 10.671875 -23.53125 C 13.328125 -23.53125 15.378906 -22.867188 16.828125 -21.546875 C 18.273438 -20.234375 19 -18.554688 19 -16.515625 C 19 -14.941406 18.515625 -13.519531 17.546875 -12.25 C 16.585938 -10.988281 15.117188 -10.164062 13.140625 -9.78125 L 19.375 0 L 14.65625 0 L 8.765625 -9.546875 Z M 6.40625 -20.515625 L 6.40625 -12.5625 L 10.671875 -12.5625 C 12.128906 -12.5625 13.21875 -12.910156 13.9375 -13.609375 C 14.664062 -14.304688 15.03125 -15.28125 15.03125 -16.53125 C 15.03125 -17.789062 14.664062 -18.769531 13.9375 -19.46875 C 13.21875 -20.164062 12.128906 -20.515625 10.671875 -20.515625 Z M 6.40625 -20.515625 "/></g></g></g><g fill="#ffffff" fill-opacity="1"><g transform="translate(252.601101, 231.288326)"><g><path d="M 1.328125 -20.515625 L 1.328125 -23.53125 L 17.75 -23.53125 L 17.75 -20.515625 L 11.484375 -20.515625 L 11.484375 0 L 7.625 0 L 7.625 -20.515625 Z M 1.328125 -20.515625 "/></g></g></g><g fill="#ffffff" fill-opacity="1"><g transform="translate(149.543417, 250.776634)"><g><path d="M 6.140625 -1.875 C 6.140625 -1.25 5.890625 -0.765625 5.390625 -0.421875 C 4.898438 -0.078125 4.210938 0.09375 3.328125 0.09375 C 1.671875 0.09375 0.710938 -0.476562 0.453125 -1.625 L 1.34375 -1.8125 C 1.445312 -1.40625 1.664062 -1.101562 2 -0.90625 C 2.332031 -0.71875 2.785156 -0.625 3.359375 -0.625 C 3.953125 -0.625 4.410156 -0.722656 4.734375 -0.921875 C 5.054688 -1.128906 5.21875 -1.429688 5.21875 -1.828125 C 5.21875 -2.046875 5.164062 -2.222656 5.0625 -2.359375 C 4.96875 -2.503906 4.828125 -2.617188 4.640625 -2.703125 C 4.460938 -2.796875 4.242188 -2.875 3.984375 -2.9375 C 3.734375 -3 3.453125 -3.066406 3.140625 -3.140625 C 2.609375 -3.253906 2.203125 -3.367188 1.921875 -3.484375 C 1.640625 -3.609375 1.414062 -3.742188 1.25 -3.890625 C 1.09375 -4.035156 0.972656 -4.207031 0.890625 -4.40625 C 0.804688 -4.601562 0.765625 -4.828125 0.765625 -5.078125 C 0.765625 -5.660156 0.988281 -6.109375 1.4375 -6.421875 C 1.882812 -6.734375 2.519531 -6.890625 3.34375 -6.890625 C 4.113281 -6.890625 4.703125 -6.769531 5.109375 -6.53125 C 5.523438 -6.300781 5.8125 -5.898438 5.96875 -5.328125 L 5.0625 -5.171875 C 4.96875 -5.535156 4.78125 -5.796875 4.5 -5.953125 C 4.21875 -6.117188 3.832031 -6.203125 3.34375 -6.203125 C 2.789062 -6.203125 2.367188 -6.109375 2.078125 -5.921875 C 1.796875 -5.742188 1.65625 -5.476562 1.65625 -5.125 C 1.65625 -4.914062 1.710938 -4.742188 1.828125 -4.609375 C 1.941406 -4.472656 2.101562 -4.359375 2.3125 -4.265625 C 2.519531 -4.171875 2.9375 -4.050781 3.5625 -3.90625 C 3.769531 -3.863281 3.976562 -3.816406 4.1875 -3.765625 C 4.394531 -3.710938 4.59375 -3.648438 4.78125 -3.578125 C 4.96875 -3.515625 5.144531 -3.4375 5.3125 -3.34375 C 5.476562 -3.25 5.617188 -3.132812 5.734375 -3 C 5.859375 -2.863281 5.957031 -2.703125 6.03125 -2.515625 C 6.101562 -2.335938 6.140625 -2.125 6.140625 -1.875 Z M 6.140625 -1.875 "/></g></g></g><g fill="#ffffff" fill-opacity="1"><g transform="translate(157.310774, 250.776634)"><g><path d="M 5.40625 0 L 5.40625 -3.15625 L 1.734375 -3.15625 L 1.734375 0 L 0.8125 0 L 0.8125 -6.796875 L 1.734375 -6.796875 L 1.734375 -3.921875 L 5.40625 -3.921875 L 5.40625 -6.796875 L 6.328125 -6.796875 L 6.328125 0 Z M 5.40625 0 "/></g></g></g><g fill="#ffffff" fill-opacity="1"><g transform="translate(165.62256, 250.776634)"><g><path d="M 7.203125 -3.421875 C 7.203125 -2.710938 7.066406 -2.09375 6.796875 -1.5625 C 6.523438 -1.03125 6.132812 -0.617188 5.625 -0.328125 C 5.125 -0.046875 4.523438 0.09375 3.828125 0.09375 C 3.128906 0.09375 2.523438 -0.046875 2.015625 -0.328125 C 1.515625 -0.609375 1.128906 -1.015625 0.859375 -1.546875 C 0.597656 -2.085938 0.46875 -2.710938 0.46875 -3.421875 C 0.46875 -4.515625 0.765625 -5.363281 1.359375 -5.96875 C 1.953125 -6.582031 2.78125 -6.890625 3.84375 -6.890625 C 4.53125 -6.890625 5.128906 -6.753906 5.640625 -6.484375 C 6.148438 -6.210938 6.535156 -5.8125 6.796875 -5.28125 C 7.066406 -4.757812 7.203125 -4.140625 7.203125 -3.421875 Z M 6.265625 -3.421875 C 6.265625 -4.273438 6.050781 -4.941406 5.625 -5.421875 C 5.207031 -5.898438 4.613281 -6.140625 3.84375 -6.140625 C 3.0625 -6.140625 2.457031 -5.898438 2.03125 -5.421875 C 1.613281 -4.953125 1.40625 -4.285156 1.40625 -3.421875 C 1.40625 -2.578125 1.617188 -1.90625 2.046875 -1.40625 C 2.472656 -0.90625 3.066406 -0.65625 3.828125 -0.65625 C 4.617188 -0.65625 5.222656 -0.894531 5.640625 -1.375 C 6.054688 -1.863281 6.265625 -2.546875 6.265625 -3.421875 Z M 6.265625 -3.421875 "/></g></g></g><g fill="#ffffff" fill-opacity="1"><g transform="translate(174.483594, 250.776634)"><g><path d="M 6.0625 -4.75 C 6.0625 -4.101562 5.851562 -3.585938 5.4375 -3.203125 C 5.019531 -2.828125 4.453125 -2.640625 3.734375 -2.640625 L 1.734375 -2.640625 L 1.734375 0 L 0.8125 0 L 0.8125 -6.796875 L 3.671875 -6.796875 C 4.429688 -6.796875 5.019531 -6.613281 5.4375 -6.25 C 5.851562 -5.894531 6.0625 -5.394531 6.0625 -4.75 Z M 5.140625 -4.734375 C 5.140625 -5.617188 4.613281 -6.0625 3.5625 -6.0625 L 1.734375 -6.0625 L 1.734375 -3.375 L 3.59375 -3.375 C 4.625 -3.375 5.140625 -3.828125 5.140625 -4.734375 Z M 5.140625 -4.734375 "/></g></g></g><g fill="#ffffff" fill-opacity="1"><g transform="translate(182.25095, 250.776634)"><g/></g></g><g fill="#ffffff" fill-opacity="1"><g transform="translate(186.17839, 250.776634)"><g><path d="M 6.140625 -1.875 C 6.140625 -1.25 5.890625 -0.765625 5.390625 -0.421875 C 4.898438 -0.078125 4.210938 0.09375 3.328125 0.09375 C 1.671875 0.09375 0.710938 -0.476562 0.453125 -1.625 L 1.34375 -1.8125 C 1.445312 -1.40625 1.664062 -1.101562 2 -0.90625 C 2.332031 -0.71875 2.785156 -0.625 3.359375 -0.625 C 3.953125 -0.625 4.410156 -0.722656 4.734375 -0.921875 C 5.054688 -1.128906 5.21875 -1.429688 5.21875 -1.828125 C 5.21875 -2.046875 5.164062 -2.222656 5.0625 -2.359375 C 4.96875 -2.503906 4.828125 -2.617188 4.640625 -2.703125 C 4.460938 -2.796875 4.242188 -2.875 3.984375 -2.9375 C 3.734375 -3 3.453125 -3.066406 3.140625 -3.140625 C 2.609375 -3.253906 2.203125 -3.367188 1.921875 -3.484375 C 1.640625 -3.609375 1.414062 -3.742188 1.25 -3.890625 C 1.09375 -4.035156 0.972656 -4.207031 0.890625 -4.40625 C 0.804688 -4.601562 0.765625 -4.828125 0.765625 -5.078125 C 0.765625 -5.660156 0.988281 -6.109375 1.4375 -6.421875 C 1.882812 -6.734375 2.519531 -6.890625 3.34375 -6.890625 C 4.113281 -6.890625 4.703125 -6.769531 5.109375 -6.53125 C 5.523438 -6.300781 5.8125 -5.898438 5.96875 -5.328125 L 5.0625 -5.171875 C 4.96875 -5.535156 4.78125 -5.796875 4.5 -5.953125 C 4.21875 -6.117188 3.832031 -6.203125 3.34375 -6.203125 C 2.789062 -6.203125 2.367188 -6.109375 2.078125 -5.921875 C 1.796875 -5.742188 1.65625 -5.476562 1.65625 -5.125 C 1.65625 -4.914062 1.710938 -4.742188 1.828125 -4.609375 C 1.941406 -4.472656 2.101562 -4.359375 2.3125 -4.265625 C 2.519531 -4.171875 2.9375 -4.050781 3.5625 -3.90625 C 3.769531 -3.863281 3.976562 -3.816406 4.1875 -3.765625 C 4.394531 -3.710938 4.59375 -3.648438 4.78125 -3.578125 C 4.96875 -3.515625 5.144531 -3.4375 5.3125 -3.34375 C 5.476562 -3.25 5.617188 -3.132812 5.734375 -3 C 5.859375 -2.863281 5.957031 -2.703125 6.03125 -2.515625 C 6.101562 -2.335938 6.140625 -2.125 6.140625 -1.875 Z M 6.140625 -1.875 "/></g></g></g><g fill="#ffffff" fill-opacity="1"><g transform="translate(193.945747, 250.776634)"><g><path d="M 6.59375 0 L 6.59375 -4.53125 C 6.59375 -5.03125 6.601562 -5.515625 6.625 -5.984375 C 6.46875 -5.398438 6.328125 -4.945312 6.203125 -4.625 L 4.453125 0 L 3.796875 0 L 2.03125 -4.625 L 1.75 -5.453125 L 1.59375 -5.984375 L 1.609375 -5.4375 L 1.625 -4.53125 L 1.625 0 L 0.8125 0 L 0.8125 -6.796875 L 2.015625 -6.796875 L 3.828125 -2.078125 C 3.890625 -1.890625 3.953125 -1.6875 4.015625 -1.46875 C 4.078125 -1.25 4.113281 -1.09375 4.125 -1 C 4.15625 -1.132812 4.210938 -1.332031 4.296875 -1.59375 C 4.378906 -1.851562 4.429688 -2.015625 4.453125 -2.078125 L 6.234375 -6.796875 L 7.421875 -6.796875 L 7.421875 0 Z M 6.59375 0 "/></g></g></g><g fill="#ffffff" fill-opacity="1"><g transform="translate(203.35121, 250.776634)"><g><path d="M 5.625 0 L 4.84375 -1.984375 L 1.75 -1.984375 L 0.96875 0 L 0.015625 0 L 2.796875 -6.796875 L 3.84375 -6.796875 L 6.5625 0 Z M 3.296875 -6.09375 L 3.265625 -5.96875 C 3.179688 -5.695312 3.0625 -5.351562 2.90625 -4.9375 L 2.03125 -2.703125 L 4.578125 -2.703125 L 3.703125 -4.953125 C 3.609375 -5.171875 3.519531 -5.421875 3.4375 -5.703125 Z M 3.296875 -6.09375 "/></g></g></g><g fill="#ffffff" fill-opacity="1"><g transform="translate(211.118567, 250.776634)"><g><path d="M 5.609375 0 L 3.84375 -2.828125 L 1.734375 -2.828125 L 1.734375 0 L 0.8125 0 L 0.8125 -6.796875 L 4 -6.796875 C 4.769531 -6.796875 5.363281 -6.625 5.78125 -6.28125 C 6.195312 -5.9375 6.40625 -5.457031 6.40625 -4.84375 C 6.40625 -4.34375 6.253906 -3.921875 5.953125 -3.578125 C 5.660156 -3.234375 5.257812 -3.015625 4.75 -2.921875 L 6.671875 0 Z M 5.484375 -4.84375 C 5.484375 -5.238281 5.347656 -5.539062 5.078125 -5.75 C 4.804688 -5.957031 4.421875 -6.0625 3.921875 -6.0625 L 1.734375 -6.0625 L 1.734375 -3.546875 L 3.953125 -3.546875 C 4.441406 -3.546875 4.816406 -3.660156 5.078125 -3.890625 C 5.347656 -4.117188 5.484375 -4.4375 5.484375 -4.84375 Z M 5.484375 -4.84375 "/></g></g></g><g fill="#ffffff" fill-opacity="1"><g transform="translate(219.430353, 250.776634)"><g><path d="M 3.46875 -6.046875 L 3.46875 0 L 2.5625 0 L 2.5625 -6.046875 L 0.21875 -6.046875 L 0.21875 -6.796875 L 5.8125 -6.796875 L 5.8125 -6.046875 Z M 3.46875 -6.046875 "/></g></g></g></svg>